<?xml version="1.0" encoding="utf-8"?>
<!-- Generator: Adobe Illustrator 19.2.1, SVG Export Plug-In . SVG Version: 6.00 Build 0)  -->
<svg version="1.1" id="Layer_1" xmlns="http://www.w3.org/2000/svg" xmlns:xlink="http://www.w3.org/1999/xlink" x="0px" y="0px"
	 viewBox="0 0 150 54" style="enable-background:new 0 0 150 54;" xml:space="preserve">
<style type="text/css">
	.st0{clip-path:url(#SVGID_2_);fill:#231F20;}
	.st1{fill-rule:evenodd;clip-rule:evenodd;fill:#AD9332;}
	.st2{fill:#231F20;}
	.st3{clip-path:url(#SVGID_4_);fill:#231F20;}
</style>
<g>
	<g>
		<g>
			<defs>
				<polygon id="SVGID_1_" points="27.2,53.4 7.5,48.7 -35.3,-14.2 27.3,-14.2 				"/>
			</defs>
			<clipPath id="SVGID_2_">
				<use xlink:href="#SVGID_1_"  style="overflow:visible;"/>
			</clipPath>
			<path class="st0" d="M1.6,6.5c1.8-0.4,22-1.5,22.9,0.4c1.6,3.3-3.3,5.4-5,7.3c-3.7,4.1,2,5.7,3.7,8.8c4.9,9-1.9,19-7.6,25.3
				c-1.6,1.8-3.4,3.5-5.2,5.2c7.6-7.3,13.4-19.5,9-29.8c-1.6-3.7-6.3-9.9,1.2-13.3C25,8.3,12.1,7.8,1.6,6.5z"/>
		</g>
		<path class="st1" d="M79.1,15.6c0,0-2.3,0.3-3.1-4C76,11.6,79.4,11.9,79.1,15.6z"/>
		<path class="st1" d="M80,15.5c0,0-1.4-1.8,1.8-4.7C81.8,10.8,83.3,13.9,80,15.5z"/>
		<path class="st1" d="M80.5,15.9c0,0,0.9-2.1,5-0.7C85.5,15.2,83.5,18,80.5,15.9z"/>
		<path class="st1" d="M80.3,17c0,0,2.3-0.4,3.4,3.8C83.6,20.8,80.2,20.7,80.3,17z"/>
		<path class="st1" d="M79.3,17.4c0,0,1.5,1.8-1.6,4.8C77.7,22.2,76,19.1,79.3,17.4z"/>
		<path class="st1" d="M78.7,16.4c0,0-0.9,2.2-5,0.8C73.7,17.2,75.6,14.3,78.7,16.4z"/>
		<ellipse transform="matrix(0.3076 -0.9515 0.9515 0.3076 39.5625 87.1781)" class="st1" cx="79.7" cy="16.4" rx="0.7" ry="0.7"/>
		<path class="st2" d="M42.4,26.2c1.6,1.7,2.4,3.8,2.4,6.3c0,2.4-0.8,4.5-2.4,6.2c-1.6,1.7-3.6,2.6-5.8,2.6c-2.3,0-4.2-0.9-5.9-2.6
			c-1.6-1.7-2.4-3.8-2.4-6.2c0-2.4,0.8-4.5,2.4-6.3c1.6-1.7,3.6-2.6,5.9-2.6C38.8,23.6,40.7,24.5,42.4,26.2z M36.5,25.1
			c-1,0-1.9,0.7-2.6,2.2c-0.7,1.4-1.1,3.2-1.1,5.2c0,2,0.4,3.8,1.1,5.2c0.7,1.4,1.6,2.2,2.6,2.2c1,0,1.9-0.7,2.6-2.2
			c0.7-1.4,1.1-3.2,1.1-5.2c0-2-0.4-3.8-1.1-5.2C38.4,25.8,37.5,25.1,36.5,25.1z"/>
		<path class="st2" d="M52.3,41.3c-1.4,0-2.6-0.5-3.5-1.4c-1-0.9-1.4-2.1-1.4-3.7V24h4.2V36c0,0.8,0.3,1.4,0.9,1.9
			c0.6,0.5,1.3,0.8,2.1,0.8c0.8,0,1.5-0.3,2.1-0.8c0.6-0.5,0.9-1.2,0.9-1.9V24h4.2v17h-4.2v-2.4C56,40.4,54.3,41.3,52.3,41.3z"/>
		<path class="st2" d="M70.7,18.4V24h4.1l0.2,2.9c-0.4-0.7-1-1-1.9-1h-2.4v15.2h-4.3V25.8h-3C67.1,23.4,69.5,20.9,70.7,18.4z"/>
		<rect x="77.5" y="24" class="st2" width="4.3" height="17"/>
		<path class="st2" d="M99.8,47.8h-4.3v-8.1c-1.2,1-2.5,1.6-3.9,1.6c-1.9,0-3.5-0.9-4.8-2.6c-1.3-1.7-1.9-3.8-1.9-6.2
			c0-2.4,0.7-4.5,2.1-6.3c1.4-1.7,3.1-2.6,5-2.6c1.3,0,2.5,0.4,3.6,1.3V24h4.3V47.8z M93,39.7c0.8,0,1.7-0.4,2.5-1.2V26.7
			c-0.7-1.1-1.4-1.6-2.3-1.6c-1,0-1.9,0.7-2.6,2.1c-0.7,1.4-1.1,3.2-1.1,5.4c0,2.1,0.3,3.9,1,5.2C91.1,39,91.9,39.7,93,39.7z"/>
		<path class="st2" d="M110.1,23.6c2.6,0,4.4,0.5,5.5,1.5c1.1,1,1.7,2.7,1.7,5.1v6.7c0,2.4,0.4,3.9,1.2,4.4l-5.4-0.4V40
			c-1.6,0.9-3.3,1.3-5.2,1.3c-3.5,0-5.3-1.6-5.3-4.7c0-2,0.8-3.5,2.5-4.5c1.7-1,3.9-1.5,6.5-1.5c0.5,0,1,0,1.5,0.1v-1.1
			c0-1.7-0.3-2.8-0.8-3.4c-0.5-0.6-1.3-0.9-2.3-0.9c-1.7,0-3.2,0.5-4.5,1.6v-2.6C107,23.9,108.5,23.6,110.1,23.6z M111.6,31.7
			c-1.4,0-2.5,0.4-3.3,1.3c-0.8,0.9-1.2,2-1.2,3.3c0,1.1,0.3,2,0.9,2.6c0.6,0.6,1.3,0.8,2.2,0.8c1.2,0,2.2-0.4,2.8-1.2v-6.7
			C112.5,31.8,112,31.7,111.6,31.7z"/>
		<path class="st2" d="M128,23.6c2.6,0,4.4,0.5,5.5,1.5c1.1,1,1.7,2.7,1.7,5.1v6.7c0,2.4,0.4,3.9,1.1,4.4l-5.4-0.4V40
			c-1.6,0.9-3.3,1.3-5.2,1.3c-3.5,0-5.3-1.6-5.3-4.7c0-2,0.8-3.5,2.5-4.5c1.7-1,3.9-1.5,6.5-1.5c0.5,0,1,0,1.5,0.1v-1.1
			c0-1.7-0.3-2.8-0.8-3.4c-0.5-0.6-1.3-0.9-2.3-0.9c-1.7,0-3.2,0.5-4.5,1.6v-2.6C124.9,23.9,126.5,23.6,128,23.6z M129.5,31.7
			c-1.4,0-2.5,0.4-3.3,1.3c-0.8,0.9-1.2,2-1.2,3.3c0,1.1,0.3,2,0.9,2.6c0.6,0.6,1.3,0.8,2.2,0.8c1.2,0,2.2-0.4,2.8-1.2v-6.7
			C130.4,31.8,129.9,31.7,129.5,31.7z"/>
		<path class="st2" d="M145,18.4V24h4.1l0.2,2.9c-0.4-0.7-1-1-1.9-1H145v15.2h-4.3V25.8h-3C141.4,23.4,143.8,20.9,145,18.4z"/>
		<g>
			<defs>
				<polygon id="SVGID_3_" points="17.9,0 -7.1,22.6 -1.6,41.4 11.7,52.6 24.2,38.3 38.4,39.9 42.4,-1.1 				"/>
			</defs>
			<clipPath id="SVGID_4_">
				<use xlink:href="#SVGID_3_"  style="overflow:visible;"/>
			</clipPath>
			<path class="st3" d="M15.5,46.5C5.9,34.2,4.7,18.9,12.4,11c-0.6,0.3-1.1,0.7-1.7,1.1C1.4,19.5,2.1,35.9,12.3,49
				c10.2,13,26,17.7,35.3,10.4c0.5-0.4,1-0.9,1.5-1.4C39.7,63.6,25.1,58.8,15.5,46.5z"/>
		</g>
	</g>
</g>
</svg>
